<svg width="100%" height="100%" viewBox="0 0 251 44" fill="none" xmlns="http://www.w3.org/2000/svg">
<path d="M28.1 0.699997C32.54 0.699997 36.42 1.6 39.74 3.4C43.1 5.16 45.68 7.64 47.48 10.84C49.28 14.04 50.18 17.7 50.18 21.82C50.18 25.9 49.26 29.54 47.42 32.74C45.62 35.94 43.04 38.46 39.68 40.3C36.36 42.1 32.5 43 28.1 43H11.36V0.699997H28.1ZM27.2 32.62C30.64 32.62 33.34 31.68 35.3 29.8C37.26 27.92 38.24 25.26 38.24 21.82C38.24 18.34 37.26 15.66 35.3 13.78C33.34 11.86 30.64 10.9 27.2 10.9H23.12V32.62H27.2Z" fill="white"/>
<path d="M75.7611 43.42C71.8011 43.42 68.1611 42.5 64.8411 40.66C61.5211 38.78 58.8811 36.2 56.9211 32.92C55.0011 29.6 54.0411 25.86 54.0411 21.7C54.0411 17.54 55.0011 13.82 56.9211 10.54C58.8811 7.22 61.5211 4.64 64.8411 2.8C68.1611 0.959999 71.8011 0.0399988 75.7611 0.0399988C79.7611 0.0399988 83.4011 0.959999 86.6811 2.8C90.0011 4.64 92.6211 7.22 94.5411 10.54C96.4611 13.82 97.4211 17.54 97.4211 21.7C97.4211 25.86 96.4611 29.6 94.5411 32.92C92.6211 36.2 90.0011 38.78 86.6811 40.66C83.3611 42.5 79.7211 43.42 75.7611 43.42ZM75.7611 32.5C78.7611 32.5 81.1211 31.52 82.8411 29.56C84.6011 27.6 85.4811 24.98 85.4811 21.7C85.4811 18.34 84.6011 15.7 82.8411 13.78C81.1211 11.82 78.7611 10.84 75.7611 10.84C72.7211 10.84 70.3411 11.82 68.6211 13.78C66.9011 15.7 66.0411 18.34 66.0411 21.7C66.0411 25.02 66.9011 27.66 68.6211 29.62C70.3411 31.54 72.7211 32.5 75.7611 32.5Z" fill="white"/>
<path d="M129.708 21.28C132.188 21.84 134.148 23.08 135.588 25C137.068 26.88 137.808 29.04 137.808 31.48C137.808 35.08 136.568 37.9 134.088 39.94C131.608 41.98 128.128 43 123.648 43H102.708V0.699997H122.988C127.308 0.699997 130.688 1.66 133.128 3.58C135.608 5.5 136.848 8.2 136.848 11.68C136.848 14.16 136.188 16.24 134.868 17.92C133.588 19.56 131.868 20.68 129.708 21.28ZM114.468 17.5H120.408C123.368 17.5 124.848 16.28 124.848 13.84C124.848 11.32 123.368 10.06 120.408 10.06H114.468V17.5ZM121.308 33.52C124.268 33.52 125.748 32.28 125.748 29.8C125.748 28.52 125.348 27.54 124.548 26.86C123.788 26.18 122.688 25.84 121.248 25.84H114.468V33.52H121.308Z" fill="white"/>
<path d="M169.962 21.28C172.442 21.84 174.402 23.08 175.842 25C177.322 26.88 178.062 29.04 178.062 31.48C178.062 35.08 176.822 37.9 174.342 39.94C171.862 41.98 168.382 43 163.902 43H142.962V0.699997H163.242C167.562 0.699997 170.942 1.66 173.382 3.58C175.862 5.5 177.102 8.2 177.102 11.68C177.102 14.16 176.442 16.24 175.122 17.92C173.842 19.56 172.122 20.68 169.962 21.28ZM154.722 17.5H160.662C163.622 17.5 165.102 16.28 165.102 13.84C165.102 11.32 163.622 10.06 160.662 10.06H154.722V17.5ZM161.562 33.52C164.522 33.52 166.002 32.28 166.002 29.8C166.002 28.52 165.602 27.54 164.802 26.86C164.042 26.18 162.942 25.84 161.502 25.84H154.722V33.52H161.562Z" fill="white"/>
<path d="M194.975 10.12V17.02H208.475V25.96H194.975V33.58H210.275V43H183.215V0.699997H210.275V10.12H194.975Z" fill="white"/>
<path d="M237.507 43L229.107 27.4H227.847V43H216.087V0.699997H234.627C238.027 0.699997 240.907 1.3 243.267 2.5C245.627 3.66 247.407 5.28 248.607 7.36C249.807 9.4 250.407 11.7 250.407 14.26C250.407 17.14 249.607 19.68 248.007 21.88C246.447 24.04 244.147 25.58 241.107 26.5L250.647 43H237.507ZM227.847 19.36H233.667C235.267 19.36 236.467 18.98 237.267 18.22C238.067 17.46 238.467 16.36 238.467 14.92C238.467 13.56 238.047 12.5 237.207 11.74C236.407 10.94 235.227 10.54 233.667 10.54H227.847V19.36Z" fill="white"/>
<path d="M0 0H6V43H0V0Z" fill="#3419DD"/>
</svg>
