<svg width="275" height="76" viewBox="0 0 275 76" fill="none" xmlns="http://www.w3.org/2000/svg">
<path d="M28.6023 58H11.8125V14.3636H28.4318C32.9205 14.3636 36.7983 15.2372 40.0653 16.9844C43.3466 18.7173 45.875 21.2173 47.6506 24.4844C49.4403 27.7372 50.3352 31.6364 50.3352 36.1818C50.3352 40.7273 49.4474 44.6335 47.6719 47.9006C45.8963 51.1534 43.3821 53.6534 40.1293 55.4006C36.8764 57.1335 33.0341 58 28.6023 58ZM23.6591 47.9432H28.1761C30.3352 47.9432 32.1747 47.5952 33.6946 46.8991C35.2287 46.2031 36.3935 45.0028 37.1889 43.2983C37.9986 41.5937 38.4034 39.2216 38.4034 36.1818C38.4034 33.142 37.9915 30.7699 37.1676 29.0653C36.358 27.3608 35.1648 26.1605 33.5881 25.4645C32.0256 24.7685 30.108 24.4205 27.8352 24.4205H23.6591V47.9432ZM98.0891 36.1818C98.0891 41.0398 97.1445 45.1378 95.2553 48.4759C93.3661 51.7997 90.8164 54.321 87.6062 56.0398C84.396 57.7443 80.8164 58.5966 76.8675 58.5966C72.8903 58.5966 69.2965 57.7372 66.0863 56.0185C62.8903 54.2855 60.3477 51.7571 58.4585 48.4332C56.5835 45.0952 55.646 41.0114 55.646 36.1818C55.646 31.3239 56.5835 27.233 58.4585 23.9091C60.3477 20.571 62.8903 18.0497 66.0863 16.3452C69.2965 14.6264 72.8903 13.767 76.8675 13.767C80.8164 13.767 84.396 14.6264 87.6062 16.3452C90.8164 18.0497 93.3661 20.571 95.2553 23.9091C97.1445 27.233 98.0891 31.3239 98.0891 36.1818ZM85.9016 36.1818C85.9016 33.5682 85.5536 31.3665 84.8576 29.5767C84.1758 27.7727 83.1602 26.4091 81.8107 25.4858C80.4755 24.5483 78.8278 24.0795 76.8675 24.0795C74.9073 24.0795 73.2525 24.5483 71.9031 25.4858C70.5678 26.4091 69.5522 27.7727 68.8562 29.5767C68.1744 31.3665 67.8335 33.5682 67.8335 36.1818C67.8335 38.7955 68.1744 41.0043 68.8562 42.8082C69.5522 44.598 70.5678 45.9616 71.9031 46.8991C73.2525 47.8224 74.9073 48.2841 76.8675 48.2841C78.8278 48.2841 80.4755 47.8224 81.8107 46.8991C83.1602 45.9616 84.1758 44.598 84.8576 42.8082C85.5536 41.0043 85.9016 38.7955 85.9016 36.1818ZM103.57 58V14.3636H122.491C125.815 14.3636 128.606 14.8111 130.864 15.706C133.137 16.6009 134.849 17.8651 135.999 19.4986C137.164 21.1321 137.746 23.0568 137.746 25.2727C137.746 26.8778 137.391 28.3409 136.681 29.6619C135.985 30.983 135.005 32.0909 133.741 32.9858C132.477 33.8665 130.999 34.4773 129.309 34.8182V35.2443C131.184 35.3153 132.888 35.7912 134.423 36.6719C135.957 37.5384 137.178 38.7386 138.087 40.2727C138.996 41.7926 139.451 43.5824 139.451 45.642C139.451 48.0284 138.826 50.152 137.576 52.0128C136.34 53.8736 134.579 55.3366 132.292 56.402C130.005 57.4673 127.278 58 124.11 58H103.57ZM115.417 48.5398H120.957C122.945 48.5398 124.437 48.1705 125.431 47.4318C126.425 46.679 126.923 45.571 126.923 44.108C126.923 43.0852 126.688 42.2187 126.219 41.5085C125.751 40.7983 125.083 40.2585 124.217 39.8892C123.364 39.5199 122.335 39.3352 121.127 39.3352H115.417V48.5398ZM115.417 32.0057H120.275C121.312 32.0057 122.228 31.8423 123.023 31.5156C123.819 31.1889 124.437 30.7202 124.877 30.1094C125.332 29.4844 125.559 28.7244 125.559 27.8295C125.559 26.4801 125.076 25.4503 124.11 24.7401C123.144 24.0156 121.923 23.6534 120.445 23.6534H115.417V32.0057ZM143.648 58V14.3636H162.569C165.893 14.3636 168.684 14.8111 170.942 15.706C173.215 16.6009 174.927 17.8651 176.077 19.4986C177.242 21.1321 177.825 23.0568 177.825 25.2727C177.825 26.8778 177.469 28.3409 176.759 29.6619C176.063 30.983 175.083 32.0909 173.819 32.9858C172.555 33.8665 171.077 34.4773 169.387 34.8182V35.2443C171.262 35.3153 172.967 35.7912 174.501 36.6719C176.035 37.5384 177.256 38.7386 178.165 40.2727C179.075 41.7926 179.529 43.5824 179.529 45.642C179.529 48.0284 178.904 50.152 177.654 52.0128C176.418 53.8736 174.657 55.3366 172.37 56.402C170.083 57.4673 167.356 58 164.188 58H143.648ZM155.495 48.5398H161.035C163.023 48.5398 164.515 48.1705 165.509 47.4318C166.504 46.679 167.001 45.571 167.001 44.108C167.001 43.0852 166.766 42.2187 166.298 41.5085C165.829 40.7983 165.161 40.2585 164.295 39.8892C163.442 39.5199 162.413 39.3352 161.205 39.3352H155.495V48.5398ZM155.495 32.0057H160.353C161.39 32.0057 162.306 31.8423 163.102 31.5156C163.897 31.1889 164.515 30.7202 164.955 30.1094C165.41 29.4844 165.637 28.7244 165.637 27.8295C165.637 26.4801 165.154 25.4503 164.188 24.7401C163.222 24.0156 162.001 23.6534 160.523 23.6534H155.495V32.0057ZM183.727 58V14.3636H215.175V23.9091H195.573V31.4091H213.556V40.9545H195.573V48.4545H215.09V58H183.727ZM221.051 58V14.3636H239.886C243.125 14.3636 245.958 14.9531 248.387 16.1321C250.816 17.3111 252.706 19.0085 254.055 21.2244C255.404 23.4403 256.079 26.0966 256.079 29.1932C256.079 32.3182 255.383 34.9531 253.991 37.098C252.613 39.2429 250.674 40.8622 248.174 41.956C245.689 43.0497 242.784 43.5966 239.46 43.5966H228.21V34.392H237.074C238.466 34.392 239.652 34.2216 240.632 33.8807C241.626 33.5256 242.386 32.9645 242.912 32.1974C243.451 31.4304 243.721 30.429 243.721 29.1932C243.721 27.9432 243.451 26.9276 242.912 26.1463C242.386 25.3509 241.626 24.7685 240.632 24.3991C239.652 24.0156 238.466 23.8239 237.074 23.8239H232.897V58H221.051ZM246.619 37.9716L257.528 58H244.659L234.005 37.9716H246.619Z" fill="white" shape-rendering="geometricPrecision"/>
<rect y="14" width="6" height="44" fill="#3419DD"/>
</svg>
