<svg width="960" height="279" viewBox="0 0 960 279" fill="none" xmlns="http://www.w3.org/2000/svg">
<path d="M66.87 56.65V112.03H156.18V163.51H66.87V223.57H167.88V277H0.180001V3.21999H167.88V56.65H66.87ZM313.746 3.21999C342.606 3.21999 367.826 8.93999 389.406 20.38C410.986 31.82 427.626 47.94 439.326 68.74C451.286 89.28 457.266 113.07 457.266 140.11C457.266 166.89 451.286 190.68 439.326 211.48C427.626 232.28 410.856 248.4 389.016 259.84C367.436 271.28 342.346 277 313.746 277H211.176V3.21999H313.746ZM309.456 219.28C334.676 219.28 354.306 212.39 368.346 198.61C382.386 184.83 389.406 165.33 389.406 140.11C389.406 114.89 382.386 95.26 368.346 81.22C354.306 67.18 334.676 60.16 309.456 60.16H277.866V219.28H309.456ZM676.275 89.8C671.335 80.7 664.185 73.81 654.825 69.13C645.725 64.19 634.935 61.72 622.455 61.72C600.875 61.72 583.585 68.87 570.585 83.17C557.585 97.21 551.085 116.06 551.085 139.72C551.085 164.94 557.845 184.7 571.365 199C585.145 213.04 603.995 220.06 627.915 220.06C644.295 220.06 658.075 215.9 669.255 207.58C680.695 199.26 689.015 187.3 694.215 171.7H609.585V122.56H754.665V184.57C749.725 201.21 741.275 216.68 729.315 230.98C717.615 245.28 702.665 256.85 684.465 265.69C666.265 274.53 645.725 278.95 622.845 278.95C595.805 278.95 571.625 273.1 550.305 261.4C529.245 249.44 512.735 232.93 500.775 211.87C489.075 190.81 483.225 166.76 483.225 139.72C483.225 112.68 489.075 88.63 500.775 67.57C512.735 46.25 529.245 29.74 550.305 18.04C571.365 6.07999 595.415 0.0999851 622.455 0.0999851C655.215 0.0999851 682.775 8.02998 705.135 23.89C727.755 39.75 742.705 61.72 749.985 89.8H676.275ZM858.296 56.65V112.03H947.606V163.51H858.296V223.57H959.306V277H791.606V3.21999H959.306V56.65H858.296Z" fill="white" fill-opacity="0.03"/>
</svg>
